<?xml version="1.0" encoding="UTF-8" standalone="no"?>
<!DOCTYPE svg PUBLIC "-//W3C//DTD SVG 1.1//EN"
 "http://www.w3.org/Graphics/SVG/1.1/DTD/svg11.dtd">
<!-- Generated by graphviz version 5.0.0 (20220707.1540)
 -->
<!-- Title: dependencies Pages: 1 -->
<svg width="472pt" height="174pt"
 viewBox="0.00 0.00 472.00 173.80" xmlns="http://www.w3.org/2000/svg" xmlns:xlink="http://www.w3.org/1999/xlink">
<g id="graph0" class="graph" transform="scale(1 1) rotate(0) translate(4 169.8)">
<title>dependencies</title>
<polygon fill="white" stroke="transparent" points="-4,4 -4,-169.8 468,-169.8 468,4 -4,4"/>
<text text-anchor="middle" x="232" y="-8.2" font-family="sans-serif" font-size="14.00">dependencies</text>
<g id="clust1" class="cluster">
<title>cluster_AppModule</title>
<polygon fill="none" stroke="black" stroke-dasharray="1,5" points="8,-32.8 8,-157.8 456,-157.8 456,-32.8 8,-32.8"/>
</g>
<g id="clust3" class="cluster">
<title>cluster_AppModule_imports</title>
<polygon fill="none" stroke="black" points="16,-40.8 16,-92.8 448,-92.8 448,-40.8 16,-40.8"/>
</g>
<!-- AuthModule -->
<g id="node1" class="node">
<title>AuthModule</title>
<polygon fill="#8dd3c7" stroke="black" points="439.55,-84.8 436.55,-88.8 415.55,-88.8 412.55,-84.8 352.45,-84.8 352.45,-48.8 439.55,-48.8 439.55,-84.8"/>
<text text-anchor="middle" x="396" y="-62.6" font-family="Times,serif" font-size="14.00">AuthModule</text>
</g>
<!-- AppModule -->
<g id="node5" class="node">
<title>AppModule</title>
<polygon fill="#8dd3c7" stroke="black" points="270.66,-149.8 267.66,-153.8 246.66,-153.8 243.66,-149.8 187.34,-149.8 187.34,-113.8 270.66,-113.8 270.66,-149.8"/>
<text text-anchor="middle" x="229" y="-127.6" font-family="Times,serif" font-size="14.00">AppModule</text>
</g>
<!-- AuthModule&#45;&gt;AppModule -->
<g id="edge1" class="edge">
<title>AuthModule&#45;&gt;AppModule</title>
<path fill="none" stroke="black" d="M396,-84.91C396,-104.14 396,-131.8 396,-131.8 396,-131.8 280.71,-131.8 280.71,-131.8"/>
<polygon fill="black" stroke="black" points="280.71,-128.3 270.71,-131.8 280.71,-135.3 280.71,-128.3"/>
</g>
<!-- PrismaModule -->
<g id="node2" class="node">
<title>PrismaModule</title>
<polygon fill="#8dd3c7" stroke="black" points="334.44,-84.8 331.44,-88.8 310.44,-88.8 307.44,-84.8 235.56,-84.8 235.56,-48.8 334.44,-48.8 334.44,-84.8"/>
<text text-anchor="middle" x="285" y="-62.6" font-family="Times,serif" font-size="14.00">PrismaModule</text>
</g>
<!-- PrismaModule&#45;&gt;AppModule -->
<g id="edge2" class="edge">
<title>PrismaModule&#45;&gt;AppModule</title>
<path fill="none" stroke="black" d="M253.31,-84.91C253.31,-84.91 253.31,-103.79 253.31,-103.79"/>
<polygon fill="black" stroke="black" points="249.81,-103.79 253.31,-113.79 256.81,-103.79 249.81,-103.79"/>
</g>
<!-- TodoModule -->
<g id="node3" class="node">
<title>TodoModule</title>
<polygon fill="#8dd3c7" stroke="black" points="217.6,-84.8 214.6,-88.8 193.6,-88.8 190.6,-84.8 128.4,-84.8 128.4,-48.8 217.6,-48.8 217.6,-84.8"/>
<text text-anchor="middle" x="173" y="-62.6" font-family="Times,serif" font-size="14.00">TodoModule</text>
</g>
<!-- TodoModule&#45;&gt;AppModule -->
<g id="edge3" class="edge">
<title>TodoModule&#45;&gt;AppModule</title>
<path fill="none" stroke="black" d="M202.36,-84.91C202.36,-84.91 202.36,-103.79 202.36,-103.79"/>
<polygon fill="black" stroke="black" points="198.86,-103.79 202.36,-113.79 205.86,-103.79 198.86,-103.79"/>
</g>
<!-- UserModule -->
<g id="node4" class="node">
<title>UserModule</title>
<polygon fill="#8dd3c7" stroke="black" points="109.99,-84.8 106.99,-88.8 85.99,-88.8 82.99,-84.8 24.01,-84.8 24.01,-48.8 109.99,-48.8 109.99,-84.8"/>
<text text-anchor="middle" x="67" y="-62.6" font-family="Times,serif" font-size="14.00">UserModule</text>
</g>
<!-- UserModule&#45;&gt;AppModule -->
<g id="edge4" class="edge">
<title>UserModule&#45;&gt;AppModule</title>
<path fill="none" stroke="black" d="M67,-84.91C67,-104.14 67,-131.8 67,-131.8 67,-131.8 177.28,-131.8 177.28,-131.8"/>
<polygon fill="black" stroke="black" points="177.28,-135.3 187.28,-131.8 177.28,-128.3 177.28,-135.3"/>
</g>
</g>
</svg>
